<svg width="7" height="12" viewBox="0 0 7 12" fill="none" xmlns="http://www.w3.org/2000/svg">
<path d="M0.290792 10.9777C0.104541 10.7903 -4.28589e-07 10.5369 -4.17042e-07 10.2727C-4.05494e-07 10.0085 0.104541 9.75504 0.290792 9.56768L3.83079 5.97768L0.290792 2.43768C0.104541 2.25032 -5.52942e-08 1.99686 -4.37463e-08 1.73268C-3.21984e-08 1.46849 0.104542 1.21504 0.290792 1.02768C0.383755 0.93395 0.494356 0.859556 0.616216 0.808787C0.738075 0.758018 0.868781 0.73188 1.00079 0.73188C1.1328 0.73188 1.26351 0.758018 1.38537 0.808787C1.50723 0.859556 1.61783 0.93395 1.71079 1.02768L5.95079 5.26768C6.04452 5.36064 6.11891 5.47124 6.16968 5.5931C6.22045 5.71496 6.24659 5.84567 6.24659 5.97768C6.24659 6.10969 6.22045 6.2404 6.16968 6.36226C6.11891 6.48411 6.04452 6.59472 5.95079 6.68768L1.71079 10.9777C1.61783 11.0714 1.50723 11.1458 1.38537 11.1966C1.26351 11.2473 1.1328 11.2735 1.00079 11.2735C0.86878 11.2735 0.738074 11.2473 0.616215 11.1966C0.494356 11.1458 0.383755 11.0714 0.290792 10.9777Z" fill="#212329"/>
</svg>
