<svg width="12" height="8" viewBox="0 0 12 8" fill="none" xmlns="http://www.w3.org/2000/svg">
<path d="M10.9997 6.83518C10.8123 7.02144 10.5589 7.12598 10.2947 7.12598C10.0305 7.12598 9.77707 7.02144 9.5897 6.83518L5.9997 3.29518L2.4597 6.83518C2.27234 7.02144 2.01889 7.12598 1.7547 7.12598C1.49052 7.12598 1.23707 7.02144 1.0497 6.83518C0.955976 6.74222 0.881582 6.63162 0.830813 6.50976C0.780044 6.3879 0.753906 6.2572 0.753906 6.12518C0.753906 5.99317 0.780044 5.86247 0.830813 5.74061C0.881582 5.61875 0.955976 5.50815 1.0497 5.41518L5.2897 1.17518C5.38267 1.08146 5.49327 1.00706 5.61513 0.956293C5.73699 0.905524 5.86769 0.879386 5.9997 0.879386C6.13172 0.879386 6.26242 0.905524 6.38428 0.956293C6.50614 1.00706 6.61674 1.08146 6.7097 1.17518L10.9997 5.41518C11.0934 5.50815 11.1678 5.61875 11.2186 5.74061C11.2694 5.86247 11.2955 5.99317 11.2955 6.12518C11.2955 6.2572 11.2694 6.3879 11.2186 6.50976C11.1678 6.63162 11.0934 6.74222 10.9997 6.83518Z" fill="#212329"/>
</svg>
