<svg viewBox="0 0 20 20" xmlns="http://www.w3.org/2000/svg">
<path d="M8.53561 12.9689C8.41375 12.9181 8.30315 12.8438 8.21019 12.75L6.29019 10.83C6.10188 10.6417 5.99609 10.3863 5.99609 10.12C5.99609 9.85372 6.10188 9.59833 6.29019 9.41002C6.47849 9.22172 6.73388 9.11593 7.00019 9.11593C7.26649 9.11593 7.52188 9.22172 7.71019 9.41002L8.92019 10.63L12.2902 7.25002C12.4785 7.06172 12.7339 6.95593 13.0002 6.95593C13.2665 6.95593 13.5219 7.06172 13.7102 7.25002C13.8985 7.43833 14.0043 7.69372 14.0043 7.96002C14.0043 8.22633 13.8985 8.48172 13.7102 8.67002L9.63019 12.75C9.53722 12.8438 9.42662 12.9181 9.30476 12.9689C9.1829 13.0197 9.0522 13.0458 8.92019 13.0458C8.78817 13.0458 8.65747 13.0197 8.53561 12.9689Z"/>
</svg>
