<svg viewBox="0 0 16 12" xmlns="http://www.w3.org/2000/svg">
<path d="M14.7099 1.21C14.617 1.11627 14.5064 1.04188 14.3845 0.991107C14.2627 0.940338 14.132 0.9142 13.9999 0.9142C13.8679 0.9142 13.7372 0.940338 13.6154 0.991107C13.4935 1.04188 13.3829 1.11627 13.29 1.21L5.83995 8.67L2.70995 5.53C2.61343 5.43676 2.49949 5.36345 2.37463 5.31424C2.24978 5.26504 2.11645 5.24091 1.98227 5.24323C1.84809 5.24555 1.71568 5.27428 1.5926 5.32777C1.46953 5.38126 1.35819 5.45848 1.26495 5.555C1.17171 5.65152 1.0984 5.76546 1.04919 5.89032C0.999989 6.01517 0.975859 6.1485 0.97818 6.28268C0.980502 6.41686 1.00923 6.54927 1.06272 6.67234C1.11622 6.79542 1.19343 6.90676 1.28995 7L5.12995 10.84C5.22291 10.9337 5.33351 11.0081 5.45537 11.0589C5.57723 11.1097 5.70794 11.1358 5.83995 11.1358C5.97196 11.1358 6.10267 11.1097 6.22453 11.0589C6.34639 11.0081 6.45699 10.9337 6.54995 10.84L14.7099 2.68C14.8115 2.58636 14.8925 2.4727 14.9479 2.3462C15.0033 2.21971 15.0319 2.0831 15.0319 1.945C15.0319 1.8069 15.0033 1.67029 14.9479 1.54379C14.8925 1.41729 14.8115 1.30364 14.7099 1.21Z"/>
</svg>
