<svg viewBox="0 0 24 24" xmlns="http://www.w3.org/2000/svg"><path d="M6.992 14.502a1 1 0 0 0-1 1v1.782a7.972 7.972 0 0 1-2-5.282c0-.294.017-.588.052-.88a1 1 0 1 0-1.985-.24 9.177 9.177 0 0 0-.067 1.12 9.964 9.964 0 0 0 2.417 6.5H2.992a1 1 0 0 0 0 2h4a.98.98 0 0 0 .794-.422c.011-.015.026-.027.037-.043.007-.01.007-.021.013-.032a.968.968 0 0 0 .106-.258.953.953 0 0 0 .032-.156c.003-.03.018-.057.018-.089v-4a1 1 0 0 0-1-1zm1.5-8.5H6.709a7.974 7.974 0 0 1 5.283-2c.294 0 .587.017.88.053a1 1 0 1 0 .24-1.987 9.226 9.226 0 0 0-1.12-.066 9.964 9.964 0 0 0-6.5 2.417V3.002a1 1 0 0 0-2 0v4c.006.066.02.131.039.195v.001a.97.97 0 0 0 .141.345l.012.017c.066.096.149.18.244.246.011.008.017.02.028.028.014.01.03.013.045.021a.959.959 0 0 0 .441.137c.018.001.032.01.05.01h4a1 1 0 1 0 0-2zm11.96 10.804a.969.969 0 0 0-.141-.345l-.011-.017a.973.973 0 0 0-.245-.246c-.011-.008-.016-.02-.028-.028-.01-.007-.023-.007-.034-.014a1.154 1.154 0 0 0-.41-.136c-.032-.003-.059-.018-.091-.018h-4a1 1 0 1 0 0 2h1.782a7.974 7.974 0 0 1-5.282 2c-.294 0-.588-.018-.88-.054a1 1 0 1 0-.24 1.987 9.39 9.39 0 0 0 1.12.067 9.965 9.965 0 0 0 6.5-2.417v1.417a1 1 0 0 0 2 0v-4a.958.958 0 0 0-.04-.195zm.54-11.304a1 1 0 1 0 0-2h-4a.95.95 0 0 0-.192.039l-.007.001a.969.969 0 0 0-.34.14l-.02.013a.975.975 0 0 0-.245.244c-.008.01-.02.016-.028.027-.007.01-.007.023-.014.034a1.145 1.145 0 0 0-.136.413c-.003.03-.018.057-.018.089v4a1 1 0 0 0 2 0V6.719a7.975 7.975 0 0 1 2 5.283c0 .294-.018.588-.053.88a1 1 0 0 0 1.985.24c.046-.371.068-.746.068-1.12a9.964 9.964 0 0 0-2.417-6.5h1.417z"/></svg>