<svg width="6" height="20" viewBox="0 0 6 20" fill="none" xmlns="http://www.w3.org/2000/svg">
<path d="M4 1L4 19C4 19.2652 4.10536 19.5196 4.29289 19.7071C4.48043 19.8946 4.73478 20 5 20C5.26522 20 5.51957 19.8946 5.70711 19.7071C5.89464 19.5196 6 19.2652 6 19L6 1C6 0.734784 5.89464 0.48043 5.70711 0.292893C5.51957 0.105357 5.26522 -3.21184e-08 5 -4.37114e-08C4.73478 -5.53044e-08 4.48043 0.105357 4.29289 0.292893C4.10536 0.480429 4 0.734783 4 1ZM2 19L2 1C2 0.734783 1.89464 0.480429 1.70711 0.292893C1.51957 0.105357 1.26522 -2.06964e-07 1 -2.18557e-07C0.734784 -2.3015e-07 0.48043 0.105357 0.292893 0.292893C0.105357 0.480429 -3.21184e-08 0.734783 -4.37114e-08 1L-8.30516e-07 19C-8.42109e-07 19.2652 0.105356 19.5196 0.292893 19.7071C0.480429 19.8946 0.734783 20 0.999999 20C1.26522 20 1.51957 19.8946 1.70711 19.7071C1.89464 19.5196 2 19.2652 2 19Z" fill="#E6E7EB"/>
</svg>
