<svg viewBox="0 0 24 21" xmlns="http://www.w3.org/2000/svg">
<path d="M12 15C11.8022 15 11.6088 15.0586 11.4444 15.1685C11.2799 15.2784 11.1518 15.4346 11.0761 15.6173C11.0004 15.8 10.9806 16.0011 11.0192 16.1951C11.0578 16.3891 11.153 16.5673 11.2929 16.7071C11.4327 16.847 11.6109 16.9422 11.8049 16.9808C11.9989 17.0194 12.1999 16.9996 12.3827 16.9239C12.5654 16.8482 12.7216 16.72 12.8314 16.5556C12.9413 16.3911 13 16.1978 13 16C13 15.7348 12.8946 15.4804 12.7071 15.2929C12.5195 15.1054 12.2652 15 12 15ZM22.67 16.47L14.62 2.47C14.3598 2.00351 13.9798 1.61495 13.5192 1.34447C13.0586 1.07398 12.5341 0.931366 12 0.931366C11.4658 0.931366 10.9414 1.07398 10.4808 1.34447C10.0202 1.61495 9.64016 2.00351 9.37997 2.47L1.37997 16.47C1.11076 16.924 0.96611 17.441 0.960612 17.9688C0.955114 18.4966 1.08897 19.0165 1.34865 19.476C1.60834 19.9356 1.98467 20.3185 2.43965 20.586C2.89463 20.8536 3.41215 20.9964 3.93997 21H20.06C20.592 21.0052 21.1159 20.8689 21.5779 20.6049C22.0399 20.3409 22.4233 19.9588 22.6889 19.4978C22.9546 19.0368 23.0928 18.5134 23.0895 17.9813C23.0861 17.4493 22.9414 16.9277 22.67 16.47ZM20.94 18.47C20.8523 18.6259 20.7244 18.7555 20.5697 18.8452C20.4149 18.9349 20.2389 18.9815 20.06 18.98H3.93997C3.76108 18.9815 3.58507 18.9349 3.43029 18.8452C3.2755 18.7555 3.14762 18.6259 3.05997 18.47C2.9722 18.318 2.92599 18.1455 2.92599 17.97C2.92599 17.7945 2.9722 17.622 3.05997 17.47L11.06 3.47C11.1439 3.3062 11.2714 3.16873 11.4284 3.07274C11.5854 2.97675 11.7659 2.92596 11.95 2.92596C12.134 2.92596 12.3145 2.97675 12.4715 3.07274C12.6286 3.16873 12.7561 3.3062 12.84 3.47L20.89 17.47C20.9892 17.6198 21.0462 17.7936 21.055 17.9731C21.0638 18.1526 21.0241 18.3312 20.94 18.49V18.47ZM12 7C11.7348 7 11.4804 7.10535 11.2929 7.29289C11.1053 7.48043 11 7.73478 11 8V12C11 12.2652 11.1053 12.5196 11.2929 12.7071C11.4804 12.8946 11.7348 13 12 13C12.2652 13 12.5195 12.8946 12.7071 12.7071C12.8946 12.5196 13 12.2652 13 12V8C13 7.73478 12.8946 7.48043 12.7071 7.29289C12.5195 7.10535 12.2652 7 12 7Z"/>
</svg>
