<svg width="20" height="20" viewBox="0 0 20 20" fill="none" xmlns="http://www.w3.org/2000/svg">
<path d="M10.1098 13.39L6.22984 17.27C5.76007 17.7233 5.1327 17.9767 4.47984 17.9767C3.82698 17.9767 3.1996 17.7233 2.72984 17.27C2.49944 17.0405 2.31663 16.7678 2.19189 16.4675C2.06715 16.1671 2.00294 15.8452 2.00294 15.52C2.00294 15.1948 2.06715 14.8728 2.19189 14.5725C2.31663 14.2722 2.49944 13.9995 2.72984 13.77L6.60984 9.88997C6.79814 9.70167 6.90393 9.44627 6.90393 9.17997C6.90393 8.91367 6.79814 8.65828 6.60984 8.46997C6.42153 8.28167 6.16614 8.17588 5.89984 8.17588C5.63353 8.17588 5.37814 8.28167 5.18984 8.46997L1.30984 12.36C0.528193 13.2108 0.105457 14.3306 0.129911 15.4857C0.154365 16.6408 0.624118 17.7418 1.44107 18.5587C2.25802 19.3757 3.359 19.8454 4.51408 19.8699C5.66917 19.8944 6.78904 19.4716 7.63984 18.69L11.5298 14.81C11.7181 14.6217 11.8239 14.3663 11.8239 14.1C11.8239 13.8337 11.7181 13.5783 11.5298 13.39C11.3415 13.2017 11.0861 13.0959 10.8198 13.0959C10.5535 13.0959 10.2981 13.2017 10.1098 13.39ZM18.6898 1.30997C17.8486 0.47398 16.7108 0.00476074 15.5248 0.00476074C14.3389 0.00476074 13.2011 0.47398 12.3598 1.30997L8.46984 5.18997C8.3766 5.28321 8.30264 5.3939 8.25218 5.51572C8.20172 5.63755 8.17575 5.76811 8.17575 5.89997C8.17575 6.03183 8.20172 6.1624 8.25218 6.28422C8.30264 6.40604 8.3766 6.51673 8.46984 6.60997C8.56308 6.70321 8.67377 6.77717 8.79559 6.82763C8.91741 6.87809 9.04798 6.90406 9.17984 6.90406C9.3117 6.90406 9.44226 6.87809 9.56409 6.82763C9.68591 6.77717 9.7966 6.70321 9.88984 6.60997L13.7698 2.72997C14.2396 2.2766 14.867 2.02323 15.5198 2.02323C16.1727 2.02323 16.8001 2.2766 17.2698 2.72997C17.5002 2.95946 17.683 3.23218 17.8078 3.53249C17.9325 3.8328 17.9967 4.15479 17.9967 4.47997C17.9967 4.80516 17.9325 5.12714 17.8078 5.42745C17.683 5.72776 17.5002 6.00049 17.2698 6.22997L13.3898 10.11C13.2961 10.2029 13.2217 10.3135 13.1709 10.4354C13.1202 10.5573 13.094 10.688 13.094 10.82C13.094 10.952 13.1202 11.0827 13.1709 11.2045C13.2217 11.3264 13.2961 11.437 13.3898 11.53C13.4828 11.6237 13.5934 11.6981 13.7153 11.7489C13.8371 11.7996 13.9678 11.8258 14.0998 11.8258C14.2318 11.8258 14.3626 11.7996 14.4844 11.7489C14.6063 11.6981 14.7169 11.6237 14.8098 11.53L18.6898 7.63997C19.5258 6.79875 19.995 5.66095 19.995 4.47497C19.995 3.289 19.5258 2.15119 18.6898 1.30997ZM6.82984 13.17C6.92328 13.2627 7.03409 13.336 7.15593 13.3857C7.27777 13.4355 7.40823 13.4607 7.53984 13.46C7.67144 13.4607 7.80191 13.4355 7.92374 13.3857C8.04558 13.336 8.1564 13.2627 8.24984 13.17L13.1698 8.24997C13.3581 8.06167 13.4639 7.80627 13.4639 7.53997C13.4639 7.27367 13.3581 7.01828 13.1698 6.82997C12.9815 6.64167 12.7261 6.53588 12.4598 6.53588C12.1935 6.53588 11.9381 6.64167 11.7498 6.82997L6.82984 11.75C6.73611 11.8429 6.66171 11.9535 6.61095 12.0754C6.56018 12.1973 6.53404 12.328 6.53404 12.46C6.53404 12.592 6.56018 12.7227 6.61095 12.8445C6.66171 12.9664 6.73611 13.077 6.82984 13.17Z" fill="#212329"/>
</svg>
