<svg viewBox="0 0 17 18" xmlns="http://www.w3.org/2000/svg">
<path d="M15.2411 5.99888L5.28661 0.45836C4.74796 0.156491 4.13658 -0.00164514 3.51458 1.29054e-05C2.89257 0.00167095 2.2821 0.163064 1.74517 0.4678C1.20824 0.772536 0.763969 1.20976 0.457493 1.73506C0.151018 2.26036 -0.00674759 2.85502 0.000221257 3.45864V14.5797C0.000221257 15.4868 0.371526 16.3568 1.03245 16.9982C1.69338 17.6396 2.58979 18 3.52448 18C4.14322 17.999 4.75085 17.8403 5.28661 17.54L15.2411 11.9994C15.776 11.699 16.22 11.2673 16.5288 10.7478C16.8375 10.2282 17 9.63894 17 9.03916C17 8.43938 16.8375 7.85015 16.5288 7.33057C16.22 6.81098 15.776 6.29932 15.2411 5.99888Z"/>
</svg>
