<svg width="20" height="21" viewBox="0 0 20 21" fill="none" xmlns="http://www.w3.org/2000/svg">
<path d="M19 17H17V14C17 13.7348 16.8946 13.4805 16.7071 13.2929C16.5196 13.1054 16.2652 13 16 13H11V10.29L12.13 10.88C12.2948 10.9662 12.4804 11.0048 12.6658 10.9913C12.8513 10.9779 13.0294 10.913 13.18 10.8039C13.3307 10.6948 13.4479 10.5459 13.5185 10.3738C13.5892 10.2018 13.6105 10.0135 13.58 9.83002L13.18 7.46002L14.9 5.77002C15.0303 5.6428 15.1233 5.48243 15.1692 5.3062C15.215 5.12997 15.2118 4.94458 15.16 4.77002C15.102 4.5923 14.9954 4.43437 14.8522 4.31418C14.7091 4.19398 14.5351 4.11633 14.35 4.09002L12 3.72002L10.9 1.56002C10.8181 1.39095 10.6903 1.24836 10.5311 1.14859C10.3719 1.04883 10.1879 0.995911 10 0.995911C9.81214 0.995911 9.62809 1.04883 9.46891 1.14859C9.30974 1.24836 9.18188 1.39095 9.1 1.56002L8 3.72002L5.61 4.07002C5.42492 4.09633 5.25092 4.17398 5.10775 4.29418C4.96458 4.41437 4.85796 4.5723 4.8 4.75002C4.74819 4.92458 4.74502 5.10997 4.79084 5.2862C4.83666 5.46243 4.92973 5.6228 5.06 5.75002L6.82 7.46002L6.42 9.83002C6.38952 10.0135 6.4108 10.2018 6.48145 10.3738C6.5521 10.5459 6.66933 10.6948 6.81996 10.8039C6.9706 10.913 7.14866 10.9779 7.33415 10.9913C7.51964 11.0048 7.70521 10.9662 7.87 10.88L9 10.29V13H4C3.73478 13 3.48043 13.1054 3.29289 13.2929C3.10536 13.4805 3 13.7348 3 14V17H1C0.734784 17 0.48043 17.1054 0.292893 17.2929C0.105357 17.4804 0 17.7348 0 18V20C0 20.2652 0.105357 20.5196 0.292893 20.7071C0.48043 20.8947 0.734784 21 1 21C1.26522 21 1.51957 20.8947 1.70711 20.7071C1.89464 20.5196 2 20.2652 2 20V19H6V20C6 20.2652 6.10536 20.5196 6.29289 20.7071C6.48043 20.8947 6.73478 21 7 21C7.26522 21 7.51957 20.8947 7.70711 20.7071C7.89464 20.5196 8 20.2652 8 20V18C8 17.7348 7.89464 17.4804 7.70711 17.2929C7.51957 17.1054 7.26522 17 7 17H5V15H15V17H13C12.7348 17 12.4804 17.1054 12.2929 17.2929C12.1054 17.4804 12 17.7348 12 18V20C12 20.2652 12.1054 20.5196 12.2929 20.7071C12.4804 20.8947 12.7348 21 13 21C13.2652 21 13.5196 20.8947 13.7071 20.7071C13.8946 20.5196 14 20.2652 14 20V19H18V20C18 20.2652 18.1054 20.5196 18.2929 20.7071C18.4804 20.8947 18.7348 21 19 21C19.2652 21 19.5196 20.8947 19.7071 20.7071C19.8946 20.5196 20 20.2652 20 20V18C20 17.7348 19.8946 17.4804 19.7071 17.2929C19.5196 17.1054 19.2652 17 19 17ZM10 7.63002C9.83586 7.63084 9.67444 7.67205 9.53 7.75002L8.73 8.17002L8.88 7.27002C8.90624 7.11083 8.89357 6.94764 8.84307 6.79441C8.79257 6.64117 8.70574 6.50243 8.59 6.39002L7.94 5.75002L8.84 5.62002C9.00101 5.59851 9.15436 5.5381 9.28678 5.44401C9.4192 5.34992 9.52671 5.22499 9.6 5.08002L10 4.26002L10.4 5.08002C10.4733 5.22499 10.5808 5.34992 10.7132 5.44401C10.8456 5.5381 10.999 5.59851 11.16 5.62002L12.06 5.75002L11.41 6.39002C11.2943 6.50243 11.2074 6.64117 11.1569 6.79441C11.1064 6.94764 11.0938 7.11083 11.12 7.27002L11.27 8.17002L10.47 7.75002C10.3256 7.67205 10.1641 7.63084 10 7.63002Z" fill="#212329"/>
</svg>
