<svg viewBox="0 0 10 12" xmlns="http://www.w3.org/2000/svg">
<path d="M9.5 3.5C9.5 3.04037 9.40947 2.58525 9.23358 2.16061C9.05769 1.73597 8.79988 1.35013 8.47487 1.02513C8.14987 0.700121 7.76403 0.442313 7.33939 0.266422C6.91475 0.0905303 6.45963 0 6 0H1.5C1.23478 0 0.98043 0.105357 0.792893 0.292893C0.605357 0.48043 0.5 0.734784 0.5 1V11C0.5 11.2652 0.605357 11.5196 0.792893 11.7071C0.98043 11.8946 1.23478 12 1.5 12H6C6.69667 12.003 7.37831 11.7975 7.95717 11.4098C8.53603 11.0221 8.98562 10.4701 9.24806 9.82475C9.51051 9.17939 9.5738 8.47025 9.42979 7.78862C9.28578 7.10698 8.94106 6.48405 8.44 6C8.77431 5.67492 9.0403 5.2863 9.22233 4.85699C9.40436 4.42767 9.49876 3.96631 9.5 3.5ZM6 10H2.5V7H6C6.39782 7 6.77936 7.15804 7.06066 7.43934C7.34196 7.72064 7.5 8.10218 7.5 8.5C7.5 8.89782 7.34196 9.27936 7.06066 9.56066C6.77936 9.84196 6.39782 10 6 10ZM6 5H2.5V2H6C6.39782 2 6.77936 2.15804 7.06066 2.43934C7.34196 2.72064 7.5 3.10218 7.5 3.5C7.5 3.89782 7.34196 4.27936 7.06066 4.56066C6.77936 4.84196 6.39782 5 6 5Z"/>
</svg>
