<svg viewBox="0 0 20 12" xmlns="http://www.w3.org/2000/svg">
  <path d="M1.71 10.29a1 1 0 0 0-.33-.21 1 1 0 0 0-.76 0 1 1 0 0 0-.33.21 1 1 0 0 0-.21.33 1 1 0 0 0 .21 1.09c.097.088.209.16.33.21a.94.94 0 0 0 .76 0 1.15 1.15 0 0 0 .33-.21 1 1 0 0 0 .21-1.09 1 1 0 0 0-.21-.33zM5 2h14a1 1 0 1 0 0-2H5a1 1 0 0 0 0 2zM1.71 5.29a1 1 0 0 0-1.09-.21 1.15 1.15 0 0 0-.33.21 1 1 0 0 0-.21.33.94.94 0 0 0 0 .76c.05.121.122.233.21.33.097.088.209.16.33.21a.94.94 0 0 0 .76 0 1.15 1.15 0 0 0 .33-.21 1.15 1.15 0 0 0 .21-.33.94.94 0 0 0 0-.76 1 1 0 0 0-.21-.33zM19 5H5a1 1 0 0 0 0 2h14a1 1 0 1 0 0-2zM1.71.29a1 1 0 0 0-.33-.21A1 1 0 0 0 .29.29a1.15 1.15 0 0 0-.21.33.94.94 0 0 0 0 .76c.05.121.122.233.21.33.097.088.209.16.33.21a1 1 0 0 0 1.09-.21 1.15 1.15 0 0 0 .21-.33.94.94 0 0 0 0-.76 1.15 1.15 0 0 0-.21-.33zM19 10H5a1 1 0 0 0 0 2h14a1 1 0 0 0 0-2z"/>
</svg>
