<svg viewBox="0 0 24 24" xmlns="http://www.w3.org/2000/svg"><path d="M19 21h-1v-1.667a4.998 4.998 0 0 0-.3-1.678.958.958 0 0 0-.035-.084A4.976 4.976 0 0 0 17 16.334l-1.4-1.867a3.02 3.02 0 0 1-.6-1.801v-1.01a3.021 3.021 0 0 1 .878-2.12l.658-.658a4.946 4.946 0 0 0 1.396-2.838c0-.014.008-.026.008-.04l-.003-.014c.035-.213.056-.428.063-.643V3h1a1 1 0 1 0 0-2H5a1 1 0 0 0 0 2h1v2.343c.007.215.028.43.063.643L6.06 6c0 .014.008.026.008.04a4.946 4.946 0 0 0 1.396 2.838l.658.657A3.02 3.02 0 0 1 9 11.656v1.01a3.022 3.022 0 0 1-.6 1.8L7 16.335a4.983 4.983 0 0 0-.665 1.237.968.968 0 0 0-.035.084 5.003 5.003 0 0 0-.3 1.678V21H5a1 1 0 0 0 0 2h14a1 1 0 0 0 0-2zM8 5V3h8v2H8zm.878 2.464A2.97 2.97 0 0 1 8.502 7h6.996a2.97 2.97 0 0 1-.376.464l-.658.657A4.96 4.96 0 0 0 13.043 11h-2.085a4.96 4.96 0 0 0-1.422-2.879l-.658-.657zm1.123 8.202c.578-.775.921-1.7.988-2.666h2.022c.067.965.41 1.89.989 2.666L15 17H9l1-1.334zM16 21H8v-1.667c.003-.111.012-.223.027-.333h7.946c.015.11.024.222.027.333V21z"/></svg>