<svg viewBox="0 0 16 22" xmlns="http://www.w3.org/2000/svg">
  <path d="M15 20h-1v-1.667a4.998 4.998 0 0 0-.3-1.678.958.958 0 0 0-.035-.084A4.976 4.976 0 0 0 13 15.334l-1.4-1.867a3.02 3.02 0 0 1-.6-1.801v-1.01a3.021 3.021 0 0 1 .878-2.12l.658-.658a4.946 4.946 0 0 0 1.396-2.838c0-.014.008-.026.008-.04l-.003-.014c.035-.213.056-.428.063-.643V2h1a1 1 0 1 0 0-2H1a1 1 0 0 0 0 2h1v2.343c.007.215.028.43.063.643L2.06 5c0 .014.007.026.008.04a4.946 4.946 0 0 0 1.396 2.838l.658.657c.56.564.876 1.326.878 2.121v1.01a3.022 3.022 0 0 1-.6 1.8L3 15.335a4.983 4.983 0 0 0-.665 1.237.968.968 0 0 0-.035.084 5.003 5.003 0 0 0-.3 1.678V20H1a1 1 0 0 0 0 2h14a1 1 0 0 0 0-2zM4 4V2h8v2H4zm.878 2.464A2.97 2.97 0 0 1 4.502 6h6.997a2.97 2.97 0 0 1-.377.464l-.658.657A4.96 4.96 0 0 0 9.042 10H6.957a4.96 4.96 0 0 0-1.421-2.879l-.658-.657zM6 14.666c.58-.775.922-1.7.989-2.666H9.01c.067.965.41 1.89.989 2.666L11 16H5l1-1.334zM12 20H4v-1.667c.003-.111.012-.223.027-.333h7.946c.015.11.024.222.027.333V20z"/>
</svg>
