<svg width="20" height="16" viewBox="0 0 20 16" fill="none" xmlns="http://www.w3.org/2000/svg">
<path d="M16.4421 4.21021C15.8306 2.80505 14.7752 1.63915 13.4377 0.891179C12.1001 0.143207 10.5543 -0.145577 9.03691 0.069078C7.51956 0.283733 6.11444 0.989987 5.03687 2.07961C3.95931 3.16924 3.26874 4.58213 3.07099 6.10178C2.11678 6.33029 1.27972 6.90128 0.71877 7.7063C0.15782 8.51133 -0.0879538 9.49432 0.0281222 10.4686C0.144198 11.4429 0.61404 12.3407 1.34842 12.9914C2.0828 13.6421 3.03058 14.0004 4.01177 13.9983C4.2772 13.9983 4.53177 13.8929 4.71946 13.7052C4.90715 13.5175 5.0126 13.2629 5.0126 12.9975C5.0126 12.7321 4.90715 12.4775 4.71946 12.2898C4.53177 12.1021 4.2772 11.9967 4.01177 11.9967C3.48089 11.9967 2.97176 11.7858 2.59638 11.4104C2.22099 11.035 2.0101 10.5259 2.0101 9.99501C2.0101 9.46414 2.22099 8.95501 2.59638 8.57962C2.97176 8.20424 3.48089 7.99335 4.01177 7.99335C4.2772 7.99335 4.53177 7.88791 4.71946 7.70021C4.90715 7.51252 5.0126 7.25796 5.0126 6.99252C5.01516 5.80881 5.43724 4.66434 6.20386 3.76242C6.97048 2.8605 8.032 2.25954 9.19983 2.0663C10.3677 1.87306 11.5662 2.10006 12.5825 2.70697C13.5987 3.31387 14.367 4.26139 14.7507 5.38118C14.8079 5.55316 14.9107 5.70638 15.0482 5.82448C15.1857 5.94258 15.3527 6.02113 15.5313 6.05174C16.198 6.17771 16.8023 6.52573 17.2458 7.03909C17.6893 7.55245 17.9459 8.20088 17.9738 8.87873C18.0016 9.55657 17.7991 10.2239 17.3992 10.7719C16.9993 11.3199 16.4256 11.7163 15.7715 11.8966C15.5141 11.963 15.2935 12.1289 15.1584 12.3579C15.0232 12.5868 14.9846 12.8601 15.0509 13.1176C15.1173 13.3751 15.2832 13.5956 15.5122 13.7308C15.7412 13.8659 16.0145 13.9046 16.272 13.8382C17.3252 13.5599 18.2589 12.9455 18.9312 12.0882C19.6035 11.231 19.9776 10.1778 19.9969 9.08853C20.0161 7.99929 19.6794 6.93351 19.0378 6.05306C18.3962 5.17261 17.4849 4.52557 16.4421 4.21021ZM10.7273 6.28193C10.6322 6.19081 10.5199 6.11939 10.3971 6.07175C10.1534 5.97165 9.8801 5.97165 9.63644 6.07175C9.51359 6.11939 9.40135 6.19081 9.30616 6.28193L6.30367 9.28442C6.11521 9.47288 6.00933 9.72849 6.00933 9.99501C6.00933 10.2615 6.11521 10.5171 6.30367 10.7056C6.49213 10.8941 6.74774 10.9999 7.01426 10.9999C7.28078 10.9999 7.53639 10.8941 7.72485 10.7056L9.01592 9.40452V14.9992C9.01592 15.2646 9.12137 15.5192 9.30906 15.7069C9.49675 15.8946 9.75132 16 10.0168 16C10.2822 16 10.5368 15.8946 10.7244 15.7069C10.9121 15.5192 11.0176 15.2646 11.0176 14.9992V9.40452L12.3087 10.7056C12.4017 10.7994 12.5124 10.8739 12.6344 10.9247C12.7563 10.9755 12.8871 11.0016 13.0192 11.0016C13.1514 11.0016 13.2822 10.9755 13.4041 10.9247C13.5261 10.8739 13.6368 10.7994 13.7298 10.7056C13.8236 10.6126 13.8981 10.5019 13.9489 10.3799C13.9997 10.2579 14.0259 10.1271 14.0259 9.99501C14.0259 9.86289 13.9997 9.73208 13.9489 9.61012C13.8981 9.48816 13.8236 9.37746 13.7298 9.28442L10.7273 6.28193Z" fill="#212329"/>
</svg>
