<svg viewBox="0 0 20 16" xmlns="http://www.w3.org/2000/svg">
  <path d="M16.442 4.21A7.006 7.006 0 0 0 3.071 6.102a4.003 4.003 0 0 0 .94 7.896 1 1 0 1 0 0-2.001 2.002 2.002 0 0 1 0-4.004 1 1 0 0 0 1.002-1A5.004 5.004 0 0 1 14.75 5.38a1 1 0 0 0 .78.67 3.002 3.002 0 0 1 .24 5.846 1.003 1.003 0 0 0 .501 1.941 5.004 5.004 0 0 0 .17-9.628zm-5.715 2.072a1 1 0 0 0-.33-.21 1 1 0 0 0-.76 0c-.123.047-.236.119-.33.21L6.303 9.284a1.005 1.005 0 1 0 1.42 1.422l1.292-1.301v5.594a1 1 0 0 0 2.002 0V9.405l1.29 1.3a1 1 0 0 0 1.422 0 1 1 0 0 0 0-1.42l-3.003-3.003z"/>
</svg>
