<svg width="20" height="16" viewBox="0 0 20 16" fill="none" xmlns="http://www.w3.org/2000/svg">
<path fill-rule="evenodd" clip-rule="evenodd" d="M18 10H19C19.2652 10 19.5196 10.1054 19.7071 10.2929C19.8946 10.4804 20 10.7348 20 11V13C20 13.7956 19.6839 14.5587 19.1213 15.1213C18.5587 15.6839 17.7956 16 17 16H3C2.20435 16 1.44129 15.6839 0.87868 15.1213C0.316071 14.5587 0 13.7956 0 13V11C0 10.7348 0.105357 10.4804 0.292893 10.2929C0.48043 10.1054 0.734784 10 1 10H2V3C2 2.20435 2.31607 1.44129 2.87868 0.87868C3.44129 0.316071 4.20435 0 5 0H15C15.7956 0 16.5587 0.316071 17.1213 0.87868C17.6839 1.44129 18 2.20435 18 3V10ZM4.29289 2.29289C4.10536 2.48043 4 2.73478 4 3V10H4.25923C4.34375 9.83097 4.44255 9.67247 4.54564 9.52814C4.85297 9.09787 5.2797 8.67845 5.79376 8.31127C6.474 7.82538 7.23785 7.47472 8.03877 7.25927C7.42046 6.77732 7 6.02422 7 5C7 3.34315 8.34315 2 10 2C11.6569 2 13 3.34315 13 5C13 6.02422 12.5795 6.77732 11.9612 7.25927C12.7622 7.47472 13.526 7.82538 14.2062 8.31127C14.7203 8.67845 15.147 9.09787 15.4544 9.52814C15.5575 9.67247 15.6563 9.83097 15.7408 10H16V3C16 2.73478 15.8946 2.48043 15.7071 2.29289C15.5196 2.10536 15.2652 2 15 2H10H5C4.73478 2 4.48043 2.10536 4.29289 2.29289ZM13.1274 10C13.1002 9.97953 13.0723 9.9591 13.0438 9.93873C12.3249 9.42524 11.2756 9 10 9C8.72441 9 7.67512 9.42524 6.95624 9.93873C6.92773 9.9591 6.89984 9.97953 6.87257 10H13.1274ZM18 12V13C18 13.2652 17.8946 13.5196 17.7071 13.7071C17.5196 13.8946 17.2652 14 17 14H3C2.73478 14 2.48043 13.8946 2.29289 13.7071C2.10536 13.5196 2 13.2652 2 13V12H18ZM11 5C11 5.55228 10.5523 6 10 6C9.44772 6 9 5.55228 9 5C9 4.44772 9.44772 4 10 4C10.5523 4 11 4.44772 11 5Z" fill="#212329"/>
</svg>
