<svg viewBox="0 0 20 16" xmlns="http://www.w3.org/2000/svg">
  <path fill-rule="evenodd" clip-rule="evenodd" d="M18 10h1a1 1 0 0 1 1 1v2a3 3 0 0 1-3 3H3a3 3 0 0 1-3-3v-2a1 1 0 0 1 1-1h1V3a3 3 0 0 1 3-3h10a3 3 0 0 1 3 3v7zM4.293 2.293A1 1 0 0 0 4 3v7h.26c.084-.169.183-.328.286-.472a5.37 5.37 0 0 1 1.248-1.217A6.975 6.975 0 0 1 8.039 7.26C7.42 6.777 7 6.024 7 5a3 3 0 0 1 6 0c0 1.024-.42 1.777-1.039 2.26a6.974 6.974 0 0 1 2.245 1.051c.514.367.941.787 1.248 1.217.103.144.202.303.287.472H16V3a1 1 0 0 0-1-1H5a1 1 0 0 0-.707.293zM13.127 10a4.217 4.217 0 0 0-.083-.061C12.324 9.425 11.276 9 10 9s-2.325.425-3.044.939L6.873 10h6.254zM18 12v1a1 1 0 0 1-1 1H3a1 1 0 0 1-1-1v-1h16zm-7-7a1 1 0 1 1-2 0 1 1 0 0 1 2 0z"/>
</svg>
