<svg viewBox="0 0 24 24" xmlns="http://www.w3.org/2000/svg"><path fill-rule="evenodd" clip-rule="evenodd" d="M20 14h1a1 1 0 0 1 1 1v2a3 3 0 0 1-3 3H5a3 3 0 0 1-3-3v-2a1 1 0 0 1 1-1h1V7a3 3 0 0 1 3-3h10a3 3 0 0 1 3 3v7zM6.293 6.293A1 1 0 0 0 6 7v7h.26c.084-.169.183-.328.286-.472.307-.43.734-.85 1.248-1.217a6.974 6.974 0 0 1 2.245-1.052C9.42 10.777 9 10.024 9 9a3 3 0 1 1 6 0c0 1.024-.42 1.777-1.039 2.26a6.973 6.973 0 0 1 2.245 1.051c.514.367.941.787 1.248 1.217.104.144.202.303.287.472H18V7a1 1 0 0 0-1-1H7a1 1 0 0 0-.707.293zM15.127 14a4.217 4.217 0 0 0-.083-.061C14.324 13.425 13.276 13 12 13s-2.325.425-3.044.939L8.873 14h6.254zM20 16v1a1 1 0 0 1-1 1H5a1 1 0 0 1-1-1v-1h16zm-7-7a1 1 0 1 1-2 0 1 1 0 0 1 2 0z"/></svg>